<svg xmlns="http://www.w3.org/2000/svg" xmlns:xlink="http://www.w3.org/1999/xlink" viewBox="0 0 202.95 177.88"><defs><style>.cls-1{fill:none;}.cls-2{clip-path:url(#clip-path);}.cls-3{fill:#bababa;}.cls-4{fill:#1d1d1b;}.cls-5{fill:#909091;}.cls-6{fill:#515151;}</style><clipPath id="clip-path"><circle class="cls-1" cx="99.86" cy="100.14" r="60.67" transform="translate(-27 37.64) rotate(-18.85)"/></clipPath></defs><title>Recurso 4</title><g id="Capa_2" data-name="Capa 2"><g id="Capa_1-2" data-name="Capa 1"><g class="cls-2"><path class="cls-3" d="M175.14,61.41l-23,7.87a60.23,60.23,0,0,0-9.05-11.76,4.91,4.91,0,0,0-.24-1.37l-.14-.4a5,5,0,0,0-5.39-3.34,60.66,60.66,0,1,0,20,28.13c-.21-.6-.44-1.19-.66-1.78l21.89-7.48a5,5,0,0,0,3.12-6.35l-.14-.4A5,5,0,0,0,175.14,61.41Z"/><rect class="cls-4" x="126.09" y="10.52" width="75.18" height="10.43" rx="5" ry="5" transform="translate(3.7 53.74) rotate(-18.85)"/><rect class="cls-4" x="129.46" y="20.39" width="75.18" height="10.43" rx="5" ry="5" transform="translate(0.69 55.36) rotate(-18.85)"/><rect class="cls-3" x="46.94" y="81.63" width="75.18" height="10.43" rx="5.21" ry="5.21" transform="translate(-23.53 31.98) rotate(-18.85)"/><rect class="cls-5" x="88.98" y="89.31" width="75.18" height="10.43" rx="5" ry="5" transform="translate(-23.76 45.97) rotate(-18.85)"/><rect class="cls-5" x="7.23" y="73.15" width="75.18" height="10.43" rx="5.21" ry="5.21" transform="translate(-22.92 18.69) rotate(-18.85)"/><rect class="cls-5" x="21.32" y="90.38" width="75.18" height="10.43" rx="5" ry="5" transform="translate(-27.73 24.16) rotate(-18.85)"/><path class="cls-5" d="M160.42,88.13l-53.76,18.36a5,5,0,0,0,1.61-5.5l-.14-.4a5,5,0,0,0-6.35-3.12L40.1,118.54A5,5,0,0,0,37,124.89l.14.4a5,5,0,0,0,6.35,3.12L47,127.19a11.43,11.43,0,0,0-4.72,13.31l10.13,29.66a11.43,11.43,0,0,0,14.47,7.1l49.57-16.93a11.33,11.33,0,0,0,2.11-1,11.33,11.33,0,0,0,2.26-.52l49.57-16.93a11.43,11.43,0,0,0,7.1-14.47L167.4,97.79C165.37,91.86,166.35,86.11,160.42,88.13Z"/><rect class="cls-5" x="-1.74" y="87.23" width="75.18" height="10.43" rx="5.21" ry="5.21" transform="translate(-27.95 16.55) rotate(-18.85)"/><rect class="cls-5" x="30.35" y="98.31" width="75.18" height="10.43" rx="5.21" ry="5.21" transform="translate(-29.81 27.51) rotate(-18.85)"/><rect class="cls-3" x="60.16" y="66.09" width="75.18" height="10.43" rx="5.21" ry="5.21" transform="translate(-17.8 35.42) rotate(-18.85)"/><rect class="cls-3" x="86.19" y="79.24" width="75.18" height="10.43" rx="5.21" ry="5.21" transform="translate(-20.65 44.53) rotate(-18.85)"/><rect class="cls-6" x="11.08" y="115.91" width="75.18" height="10.43" rx="5.21" ry="5.21" transform="translate(-36.53 22.23) rotate(-18.85)"/><rect class="cls-6" x="27.25" y="154.47" width="75.18" height="10.43" rx="5.21" ry="5.21" transform="translate(-48.12 29.52) rotate(-18.85)"/><rect class="cls-6" x="12.14" y="137.59" width="75.18" height="10.43" rx="5.21" ry="5.21" transform="translate(-43.48 23.73) rotate(-18.85)"/><rect class="cls-6" x="8.77" y="127.72" width="75.18" height="10.43" rx="5.21" ry="5.21" transform="translate(-40.47 22.11) rotate(-18.85)"/><rect class="cls-5" x="61.18" y="109.82" width="75.18" height="10.43" rx="5.21" ry="5.21" transform="translate(-31.88 38.09) rotate(-18.85)"/><circle class="cls-6" cx="109.71" cy="129.37" r="12.8" transform="translate(-35.92 42.4) rotate(-18.85)"/><circle class="cls-6" cx="137.47" cy="102.02" r="6.92" transform="translate(-25.59 49.9) rotate(-18.85)"/><circle class="cls-5" cx="105.45" cy="79.72" r="5.37" transform="translate(-26.04 93.35) rotate(-43.01)"/></g></g></g></svg>