<svg xmlns="http://www.w3.org/2000/svg" viewBox="0 0 584.34 584.34"><defs><style>.cls-1{fill:#4098d4;}.cls-2{fill:#57b472;}</style></defs><title>Recurso 2</title><g id="Capa_2" data-name="Capa 2"><g id="Capa_1-2" data-name="Capa 1"><g id="_Grupo_" data-name="&lt;Grupo&gt;"><g id="_Grupo_2" data-name="&lt;Grupo&gt;"><g id="_Grupo_3" data-name="&lt;Grupo&gt;"><circle id="_Trazado_" data-name="&lt;Trazado&gt;" class="cls-1" cx="292.17" cy="292.17" r="292.17" transform="translate(-121.02 292.17) rotate(-45)"/></g><g id="_Grupo_4" data-name="&lt;Grupo&gt;"><circle id="_Trazado_2" data-name="&lt;Trazado&gt;" class="cls-2" cx="289.88" cy="346.11" r="36.52" transform="translate(-159.83 306.35) rotate(-45)"/><path id="_Trazado_3" data-name="&lt;Trazado&gt;" class="cls-2" d="M105.65,67.29A36.5,36.5,0,0,0,163,111.4l49.3-49.3A36.52,36.52,0,0,1,264,113.75l-86.86,86.86a36.52,36.52,0,0,0,51.65,51.65L440.61,40.43C336.1-21.29,201.42-12.33,105.65,67.29Z"/><path id="_Trazado_4" data-name="&lt;Trazado&gt;" class="cls-2" d="M191.22,393.12l-46,46a36.52,36.52,0,0,1-51.65-51.65l17.42-17.42A36.52,36.52,0,1,0,59.3,318.45L9.92,367.82A293.09,293.09,0,0,0,143.73,543.91l99.14-99.14a36.52,36.52,0,0,0-51.65-51.65Z"/><path id="_Trazado_5" data-name="&lt;Trazado&gt;" class="cls-2" d="M367.3,268.69a36.52,36.52,0,0,0,51.65,0l63.39-63.39A36.52,36.52,0,1,1,534,257L383.73,407.21a36.52,36.52,0,0,0,51.65,51.65L522.24,372a36.5,36.5,0,0,1,51.14-.46c27.68-98.43,2.82-208.52-74.62-286L367.3,217A36.52,36.52,0,0,0,367.3,268.69Z"/></g></g></g></g></g></svg>