<svg xmlns="http://www.w3.org/2000/svg" xmlns:xlink="http://www.w3.org/1999/xlink" viewBox="0 0 401.38 351.79"><defs><style>.cls-1{fill:none;}.cls-2{clip-path:url(#clip-path);}.cls-3{fill:#d41c56;}.cls-4{fill:#1d1d1b;}.cls-5{fill:#bf1c59;}.cls-6{fill:#9f1f55;}.cls-7{fill:#ec7c4e;}</style><clipPath id="clip-path"><circle class="cls-1" cx="197.49" cy="198.05" r="119.99" transform="translate(-53.4 74.45) rotate(-18.85)"/></clipPath></defs><title>Recurso 1</title><g id="Capa_2" data-name="Capa 2"><g id="Capa_1-2" data-name="Capa 1"><g class="cls-2"><path class="cls-3" d="M346.37,121.44,300.82,137a119.11,119.11,0,0,0-17.9-23.26,9.71,9.71,0,0,0-.47-2.71l-.27-.79a9.93,9.93,0,0,0-10.66-6.61A120,120,0,1,0,311,159.27c-.41-1.19-.86-2.35-1.3-3.52L353,141a9.92,9.92,0,0,0,6.16-12.56l-.27-.79A9.92,9.92,0,0,0,346.37,121.44Z"/><rect class="cls-4" x="249.37" y="20.8" width="148.68" height="20.62" rx="9.89" ry="9.89" transform="translate(7.31 106.28) rotate(-18.85)"/><rect class="cls-4" x="256.03" y="40.32" width="148.68" height="20.62" rx="9.89" ry="9.89" transform="translate(1.36 109.48) rotate(-18.85)"/><rect class="cls-5" x="92.83" y="161.43" width="148.68" height="20.62" rx="10.31" ry="10.31" transform="translate(-46.53 63.24) rotate(-18.85)"/><rect class="cls-5" x="175.97" y="176.63" width="148.68" height="20.62" rx="9.89" ry="9.89" transform="matrix(0.95, -0.32, 0.32, 0.95, -46.98, 90.92)"/><rect class="cls-5" x="14.29" y="144.66" width="148.68" height="20.62" rx="10.31" ry="10.31" transform="translate(-45.33 36.96) rotate(-18.85)"/><rect class="cls-5" x="42.16" y="178.74" width="148.68" height="20.62" rx="9.89" ry="9.89" transform="matrix(0.95, -0.32, 0.32, 0.95, -54.84, 47.79)"/><path class="cls-5" d="M317.27,174.3,210.94,210.61a9.9,9.9,0,0,0,3.18-10.87l-.27-.79a9.92,9.92,0,0,0-12.56-6.16l-122,41.65A9.92,9.92,0,0,0,73.15,247l.27.79A9.92,9.92,0,0,0,86,254l7-2.41a22.61,22.61,0,0,0-9.33,26.33l20,58.66a22.61,22.61,0,0,0,28.61,14l98-33.48a22.4,22.4,0,0,0,4.16-1.92,22.42,22.42,0,0,0,4.47-1l98-33.48a22.61,22.61,0,0,0,14-28.61l-20-58.66C327.06,181.67,329,170.29,317.27,174.3Z"/><rect class="cls-5" x="-3.44" y="172.51" width="148.68" height="20.62" rx="10.31" ry="10.31" transform="translate(-55.28 32.72) rotate(-18.85)"/><rect class="cls-5" x="60.02" y="194.43" width="148.68" height="20.62" rx="10.31" ry="10.31" transform="translate(-58.96 54.4) rotate(-18.85)"/><rect class="cls-3" x="118.99" y="130.71" width="148.68" height="20.62" rx="10.31" ry="10.31" transform="translate(-35.2 70.04) rotate(-18.85)"/><rect class="cls-3" x="170.47" y="156.71" width="148.68" height="20.62" rx="10.31" ry="10.31" transform="translate(-40.84 88.07) rotate(-18.85)"/><rect class="cls-6" x="21.91" y="229.24" width="148.68" height="20.62" rx="10.31" ry="10.31" transform="translate(-72.25 43.96) rotate(-18.85)"/><rect class="cls-6" x="53.9" y="305.49" width="148.68" height="20.62" rx="10.31" ry="10.31" transform="translate(-95.18 58.39) rotate(-18.85)"/><rect class="cls-6" x="24.01" y="272.11" width="148.68" height="20.62" rx="10.31" ry="10.31" transform="translate(-85.99 46.94) rotate(-18.85)"/><rect class="cls-6" x="17.34" y="252.59" width="148.68" height="20.62" rx="10.31" ry="10.31" transform="translate(-80.04 43.73) rotate(-18.85)"/><rect class="cls-5" x="120.99" y="217.2" width="148.68" height="20.62" rx="10.31" ry="10.31" transform="translate(-63.04 75.33) rotate(-18.85)"/><circle class="cls-7" cx="251.92" cy="222.25" r="25.31" transform="translate(-58.31 93.34) rotate(-18.85)"/></g></g></g></svg>