<?xml version="1.0" encoding="utf-8"?>
<!-- Generator: Adobe Illustrator 21.1.0, SVG Export Plug-In . SVG Version: 6.00 Build 0)  -->
<svg version="1.1" id="Capa_1" xmlns="http://www.w3.org/2000/svg" xmlns:xlink="http://www.w3.org/1999/xlink" x="0px" y="0px"
	 viewBox="0 0 273.8 277.8" style="enable-background:new 0 0 273.8 277.8;" xml:space="preserve">
<style type="text/css">
	.st0{opacity:0.6;}
	.st1{fill:#FADCB1;}
	.st2{fill:#F4BA57;}
	.st3{fill:#7C216E;}
	.st4{fill:#9E348B;}
	.st5{fill:none;stroke:#AB589E;stroke-width:10.31;stroke-linecap:round;stroke-miterlimit:10;}
	.st6{fill:none;stroke:#AB589E;stroke-width:7.97;stroke-linecap:round;stroke-miterlimit:10;}
</style>
<title>Recurso 3</title>
<g id="Capa_2">
	<g id="Capa_1-2">
		<g class="st0">
			<path class="st1" d="M194.3,64.2L194.3,64.2c5.3,0,9.7,4.3,9.7,9.7v146.8c0,5.3-4.3,9.7-9.7,9.7l0,0c-5.3,0-9.7-4.3-9.7-9.7V73.8
				C184.6,68.5,189,64.2,194.3,64.2z"/>
			<path class="st1" d="M78.5,88.7L78.5,88.7c5.3,0,9.7,4.3,9.7,9.7v146.8c0,5.3-4.3,9.7-9.7,9.7l0,0c-5.3,0-9.7-4.3-9.7-9.7V98.4
				C68.8,93.1,73.2,88.7,78.5,88.7z"/>
			<path class="st1" d="M117.1,55.5L117.1,55.5c5.3,0,9.7,4.3,9.7,9.7V212c0,5.3-4.3,9.7-9.7,9.7l0,0c-5.3,0-9.7-4.3-9.7-9.7V65.2
				C107.5,59.8,111.8,55.5,117.1,55.5z"/>
			<path class="st1" d="M97.8,67.3c-5.3,0-9.6,4.3-9.7,9.7v124.3c0-5.3,4.3-9.7,9.7-9.7c5.3,0,9.7,4.3,9.7,9.7V77
				C107.5,71.7,103.2,67.4,97.8,67.3z"/>
			<path class="st1" d="M136.4,86.7L136.4,86.7c-5.3,0-9.6,4.3-9.7,9.7v108.7c0-5.3,4.3-9.6,9.7-9.7l0,0c5.3,0,9.6,4.3,9.7,9.7V96.4
				C146.1,91.1,141.8,86.7,136.4,86.7z"/>
			<path class="st1" d="M175,62.6L175,62.6c-5.3,0-9.6,4.3-9.7,9.7v144.2c0-5.3,4.3-9.6,9.7-9.7l0,0c5.3,0,9.6,4.3,9.7,9.7V72.2
				C184.6,66.9,180.3,62.6,175,62.6z"/>
			<path class="st1" d="M155.8,102.4L155.8,102.4c5.3,0,9.7,4.3,9.7,9.7v146.8c0,5.3-4.3,9.7-9.7,9.7l0,0c-5.3,0-9.7-4.3-9.7-9.7
				V112C146.1,106.7,150.4,102.4,155.8,102.4z"/>
			<path class="st1" d="M116.8,237.3L116.8,237.3c5.1,0,9.3,4.1,9.3,9.3v22c0,5.1-4.1,9.3-9.3,9.3l0,0c-5.1,0-9.3-4.1-9.3-9.3v-22
				C107.5,241.4,111.7,237.3,116.8,237.3z"/>
			<rect x="69" y="133.8" class="st1" width="51.2" height="57.5"/>
			<rect x="113" y="137.2" class="st1" width="51.2" height="57.5"/>
			<rect x="148.5" y="148.8" class="st1" width="51.2" height="57.5"/>
		</g>
		<path class="st2" d="M78.5,52.8L78.5,52.8c5.3,0,9.7,4.3,9.7,9.7v146.8c0,5.3-4.3,9.7-9.7,9.7l0,0c-5.3,0-9.7-4.3-9.7-9.7V62.4
			C68.8,57.1,73.2,52.8,78.5,52.8z"/>
		<path class="st2" d="M136.4,25.6L136.4,25.6c-5.3,0-9.6,4.3-9.7,9.7V161c0-5.3,4.3-9.6,9.7-9.7l0,0c5.3,0,9.6,4.3,9.7,9.7V35.3
			C146.1,29.9,141.8,25.6,136.4,25.6z"/>
		<path class="st2" d="M117,70.7L117,70.7c5.3,0,9.7,4.3,9.7,9.7V185c0,5.3-4.3,9.7-9.7,9.7l0,0c-5.3,0-9.7-4.3-9.7-9.7V80.4
			C107.4,75,111.7,70.7,117,70.7z"/>
		<path class="st2" d="M155.7,47.3L155.7,47.3c5.3,0,9.7,4.3,9.7,9.7v114.9c0,5.3-4.3,9.7-9.7,9.7l0,0c-5.3,0-9.7-4.3-9.7-9.7v-115
			C146,51.6,150.3,47.3,155.7,47.3z"/>
		<path class="st2" d="M194.3,38.9L194.3,38.9c5.3,0,9.7,4.3,9.7,9.7v146.8c0,5.3-4.3,9.7-9.7,9.7l0,0c-5.3,0-9.7-4.3-9.7-9.7V48.5
			C184.6,43.2,189,38.9,194.3,38.9z"/>
		<ellipse class="st3" cx="136.9" cy="89.4" rx="136.9" ry="54.3"/>
		<path class="st4" d="M217,71.4c0,17.6-35.9,31.8-80.1,31.8S56.8,88.9,56.8,71.4S76.7,0,136.9,0S217,53.8,217,71.4z"/>
		<path class="st5" d="M121,15.8c0,0-30.5,5.6-40.4,34.8"/>
		<path class="st5" d="M75.5,65.5c-1.2,3.1-2,6.4-2.4,9.7"/>
		<path class="st6" d="M29.4,97.8c-2-1.9-3.6-4.2-4.7-6.8"/>
		<path class="st6" d="M68.5,116.5c-9.2-2.3-18.2-5.6-26.7-9.9"/>
		<path class="st6" d="M136.9,124.4c-18.5,0.1-36.9-1.6-55.1-4.9"/>
	</g>
</g>
</svg>
